<svg xmlns="http://www.w3.org/2000/svg" xmlns:xlink="http://www.w3.org/1999/xlink" viewBox="0 0 1000 476">
  <g id="Tongue" style="isolation: isolate">
    <path d="M412,36c8,0,26.5,11.92,34,17-4.26,1.84-14.49,6.21-21,11-5.82,4.28-9.09,6.63-14,12-8.21,9-15.55,13.23-24,22-9.63,7.06-12.1,11.36-21,17-.33-1-5.67-5.57-2-26,4.66-11.09,16.47-21.08,21-26C395.2,51.9,400.67,47.45,412,36Z" fill="none" fill-rule="evenodd"/>
  </g>
  <g id="Lace_cage" style="isolation: isolate">
    <path d="M758,213c3.32,2.56,35.32,21.14,52,55,5.11,8.66,20,42.23,18,43-7.07,2.79-6.65,2.27-15,4-15.69,4.39-56.31,5.45-54,6-1.77-.42-2.6-26.72-17-48-.54-.8-10.35-18.23-19-25s-25.83-14.83-35-20c-20.74-11.37-38.74-21.23-41-24-6.26-3.72-11.74-6.77-18-10-12.47-6.43-20.49-9.79-33-17-6.7-3.86-16.17-10.26-23-14-9-4.93-14.43-6.55-24-12-27.74-15.78-23.46-14.08-38-23-5.62-2-12.38-6.33-16-8-2.4-1-6.78-4.52-9-6-7.81-5.21-15.69-9.78-23-15-9.84-7-4.6-4.19-15-10-4.64-2.59-17.51-9.63-25-15-4.25-1.92-6.37-2.59-6-4,7.27-6.61,18.51-13.1,28-17,12.39-3.69,20.86.52,31,5a75.85,75.85,0,0,1,10,6c.15.12-3.78,1.32-6,5-2.54,4.21-3.19,11.12,1,14a17.77,17.77,0,0,0,14,3c6.72-1.44,13.36-8.12,18-6,2.63,1.2,7.21,4.77,13,9,.63.46-5,4-6,10-1,6.7,2.1,11.43,10,12,4.79-.79,8.42-2.38,13-5a20.48,20.48,0,0,1,10-3,53.75,53.75,0,0,0,16,9c-.27.32-11.19,11-8,17,1.25,2.35,2,5.82,9,8,5,1.54,15.2-5.94,18-8,4.37-3.21,5.2-5.51,7-5,2,.58,8.13,5.42,19.09,10.84.67.33-7.62,5.21-8.09,18.16-.09,2.51,3.6,6.94,6,8s10.77-1.21,17-5c5.76-3.49,8.78-8.69,10-8,6.42,3.64,13.71,9.88,15,10,2.47-2.44-9,7.92-7,18,1.11,3.8,4.09,6.36,8,8,6.32,2.65,17.76-8.14,25-15,.62-.59,8.49,5,15,8,1.31.61-5.54,7-4,22,.51,2,3.73,12.18,10,11,4.27-.81,3.28-2,11.1-6.94,2.76-1.75,6-9.65,5.9-14.06,0-.54,7,1.84,8,2a55.52,55.52,0,0,1,10,5c1,.63-1.06,11.73-1,16s-.52,15.25,2,19c2.64,3.92,5.42,4.32,10,4a11.57,11.57,0,0,0,11-10A51.61,51.61,0,0,0,758,213Z" fill="none" fill-rule="evenodd"/>
  </g>
  <g id="Front" style="isolation: isolate">
    <path d="M758,213c18.23,7.1,48,19.66,62,23,29,6.93,53.51,12.29,73,17a177.14,177.14,0,0,1,27,12c11.51,6,15.49,10.89,12,16-10.79,7-19.82,12-36,16-27.33,7.37-54,13.8-68,14a209.94,209.94,0,0,0-20-46C798.19,247.14,774.82,222.25,758,213Z" fill="none" fill-rule="evenodd"/>
  </g>
  <g id="Middle_front" style="isolation: isolate">
    <path d="M647,205c10.58,5.79,28.24,16.07,41,23,12,6.53,23.08,11.47,34,19,4.13,2.85,13.16,14.29,15,17,11.54,17,15,28.93,15,29a128.54,128.54,0,0,1,7,28c.12,1-7.21.69-70,1-14.46.07-29.43-1-73-1-13.53-.43-24.54-.95-29-1,13.47-19.69,28.55-51.63,34-62,2-3.71,20.11-38.36,22-42C644.23,213.63,645.44,209.28,647,205Z" fill="none" fill-rule="evenodd"/>
  </g>
  <g id="Side_stripe" style="isolation: isolate">
    <path d="M396,318c3.84-6.73,6.35-12.13,11-19,5.36-7.93,9.57-17,15-25,9.81-14.4,17.69-25.95,26-40,24.42-41.27,63.07-106.11,63-106,10.33,4.5,22.13,14.1,33,20,9,4.9,18.13,8.87,27,14,11.37,6.57,24.41,14.71,36,21,13.37,7.26,27.58,12.29,40,21-2.81,12.45-8.81,21.74-16,35-2.38,4.4-3.69,7.69-6,12-6.74,12.54-14.24,28.52-21,41-4.16,7.69-8.63,16.26-16,28-57.33,0-59.67-1-117-1C460.87,318.68,406.27,318.57,396,318Z" fill="none" fill-rule="evenodd"/>
  </g>
  <g id="Middle_back">
    <path id="_Path_" data-name="&lt;Path&gt;" d="M366.77,114.33c21.16-16.36,37.91-31.34,50-44-.62.65,9,5.52,15,9,20.09,11.61,37.84,23.43,57,36,7.69,5,14.52,9,22,13-13.63,22.85-48.92,82-50,84-14.75,27-20.68,35.29-37,60-10.4,15.75-18.69,31.92-28,46h-129c-11.47-47.16-22.64-56.79-35-72-15.5-19.08-46.56-37.78-56-44-15.86-10.44-37-18.58-54-27-14.79-7.34-32.37-12.84-43-22,4.55-24.59,17.16-60.79,29-73,3.87-.15,9.71-.54,12,1,5.33,2.74,12.75,15.4,19,22,12.81,13.53,30.64,25.12,49,32,26.25,9.84,84.9,13.64,113,2,12.28-5.09,20.14-8,29-12,4-1.78,6.52-3.26,10-5a209.46,209.46,0,0,0,23-13S365.1,115.64,366.77,114.33Z" fill="none" fill-rule="evenodd"/>
  </g>
  <g id="Hell_counter" style="isolation: isolate">
    <path d="M75,153c7.59.57,9,4.35,14,7,3,.67,6,3.33,9,4,11,5.05,23.6,11.21,35,16a336.72,336.72,0,0,1,40,20c22.7,13.22,32.22,20.36,47,33,5.36,4.59,22.69,23.48,28,33,1.69,3,11,22,13,29,2.69,9.31,3.76,12.12,6,23-.67.33-37.5,1-51,1-13.94.67-46.56-1.67-81-4-19.46-1.88-37.92-4.55-53-8-13-3-25.35-5.76-32-14,5.58-3.73,5.85-31.86,8-46,4.11-27,7.65-49.23,14-75C74.08,163.56,71.94,159.48,75,153Z" fill="none" fill-rule="evenodd"/>
  </g>
  <g id="Shadow_Image" data-name="Shadow Image">
    <image id="Shadow_Image-2" data-name="Shadow Image" width="960" height="408" transform="translate(40 34)" xlink:href="shoe1.png"/>
  </g>
</svg>
